<mxfile host="65bd71144e">
    <diagram id="SXBGNvoK9Wd5aEmXsnir" name="Page-1">
        <mxGraphModel dx="1079" dy="640" grid="1" gridSize="10" guides="1" tooltips="1" connect="1" arrows="1" fold="1" page="1" pageScale="1" pageWidth="827" pageHeight="1169" math="0" shadow="0">
            <root>
                <mxCell id="0"/>
                <mxCell id="1" parent="0"/>
                <mxCell id="2" value="http://ics2o.mths.ca" style="swimlane;whiteSpace=wrap;html=1;" vertex="1" parent="1">
                    <mxGeometry x="35" y="30" width="780" height="490" as="geometry"/>
                </mxCell>
                <mxCell id="3" value="&lt;div&gt;Assignment #5: Gregory-Leibniz series, in JS&lt;/div&gt;" style="text;html=1;align=center;verticalAlign=middle;resizable=0;points=[];autosize=1;strokeColor=none;fillColor=none;fontSize=17;" vertex="1" parent="2">
                    <mxGeometry x="25" y="40" width="360" height="30" as="geometry"/>
                </mxCell>
                <mxCell id="4" value="" style="rounded=0;whiteSpace=wrap;html=1;fontSize=17;fillColor=none;strokeColor=#0000FF;sketch=1;curveFitting=1;jiggle=2;" vertex="1" parent="2">
                    <mxGeometry x="25" y="90" width="380" height="350" as="geometry"/>
                </mxCell>
                <mxCell id="5" value="&lt;div&gt;Enter a number below to indicate the&amp;nbsp;&lt;/div&gt;&lt;div&gt;amount of iterations to calculate pi&amp;nbsp;&lt;/div&gt;&lt;div&gt;using the Gregory-Leibniz series&lt;/div&gt;&lt;div&gt;&lt;br&gt;&lt;/div&gt;" style="text;html=1;align=left;verticalAlign=middle;resizable=0;points=[];autosize=1;strokeColor=none;fillColor=none;fontSize=17;" vertex="1" parent="2">
                    <mxGeometry x="40" y="100" width="310" height="100" as="geometry"/>
                </mxCell>
                <mxCell id="6" value="Enter amount of times" style="text;html=1;align=center;verticalAlign=middle;resizable=0;points=[];autosize=1;strokeColor=none;fillColor=none;fontSize=17;" vertex="1" parent="2">
                    <mxGeometry x="25" y="196" width="190" height="30" as="geometry"/>
                </mxCell>
                <mxCell id="7" value="Calculate" style="rounded=0;whiteSpace=wrap;html=1;fontSize=17;fillColor=none;shadow=0;glass=0;sketch=1;curveFitting=1;jiggle=2;" vertex="1" parent="2">
                    <mxGeometry x="40" y="260" width="135" height="50" as="geometry"/>
                </mxCell>
                <mxCell id="8" value="&lt;div&gt;&lt;span style=&quot;background-color: initial;&quot;&gt;(4 / 1) - (4 / 3)&lt;/span&gt;&lt;/div&gt;&lt;div&gt;&lt;span style=&quot;background-color: initial;&quot;&gt;&lt;br&gt;&lt;/span&gt;&lt;/div&gt;&lt;div&gt;&lt;div&gt;= 2.666666666666667&lt;/div&gt;&lt;/div&gt;&lt;div&gt;&lt;br&gt;&lt;/div&gt;" style="text;html=1;align=left;verticalAlign=middle;resizable=0;points=[];autosize=1;strokeColor=none;fillColor=none;fontSize=17;" vertex="1" parent="2">
                    <mxGeometry x="40" y="335" width="190" height="100" as="geometry"/>
                </mxCell>
                <mxCell id="9" value="2" style="whiteSpace=wrap;html=1;fontSize=17;fillColor=none;sketch=1;curveFitting=1;jiggle=2;" vertex="1" parent="2">
                    <mxGeometry x="250" y="191" width="130" height="40" as="geometry"/>
                </mxCell>
                <mxCell id="24" value="" style="shape=image;verticalLabelPosition=bottom;labelBackgroundColor=default;verticalAlign=top;aspect=fixed;imageAspect=0;image=data:image/png,iVBORw0KGgoAAAANSUhEUgAAAV0AAABqCAIAAACQ4hVBAAAAAXNSR0IArs4c6QAAIABJREFUeAHtXXlYE0ne7plldnfEeRxdVl2ddZjRWRXP8XFR2REUD5BVUZHHMeMx3oxGLtHHM+CBoKKcKhgOAQ335YkiIsEDUJHIjYoBAgQwgNwEkv78qN3eNp00naPbgXT91anj99bvreo31VXV1RBMB5IZSElJ4fF4JIN8ZJ5iRIrhgKsUg1IM91Fz9v6guAIQtgZ0jAYZEAqFurq6HA5HgzbxTVGMSDEc8J1iUIrhsO1LfQVoXcC2giZjGAwGBEFU6gLFiBTDgbahGJRiOGz/o74CtC5gW0FjMRwOx8fHh0pdoBiRYjjQMBSDUgyH7XyfpAK0LmAbQjMxQqHQwsIChmHKdIFiRIrhQKtQDEoxHLbnfaoK0LqAbQvNxDCZTKFQSKUuUIxIMRxoFYpBKYbD9rxPVQFaF7BtoYGYlJQUHx8fYIia8QLFiBTDASYpBqUYDtvtPmEFaF3ANocGYhgMBmKFGl2gGJFiOEAmxaAUwyEdBrn4hBWgdQFpBY1dIGM/YJECXaAYkWI4QCPFoBTDYTvfp60ArQvYFlErBj32A4bI1gWKESmGAxxSDEoxHLbDffIK0LqAbRS1YjgcDgMVjIyMIAgyMjJiMBgk7XqkGJFiONAYFINSDIftcJ+8ArQuYBtFkzEcDofs8YJMdSlGpBgOOEsxKMVwMg0KwzD1FaB1AdsKmoyhvkUpRqQYjtYFTfZOxbZoXVDMjdopDAZj8uTJEARNnjwZPbestmGFBihGpBgOuE0xKMVw2Kb9JBWgdQHbEHQMzYC2M0Drgrb3ANp/mgEsA7QuYDnRxhgWizXg3dYGHzXViLQuaIrJ/m1HX1+/fztAoPba4CMBGghloXWBEE0DPpM23DPa4KOmOuoA1wWZ/SEMVNAUgwPDjjbcM9rgo6Z640DWBRaLpa+vD5Z5LCwswAVQBiaTqSkGB4YdbbhntMFHTfXGAasLPB4PufmRvQPgoBQc7hjEAo6FfpqkDfeMNvioqe43kHUB4QjIgVAoRAQCSdL4BYQb5MIJhUIOgSC3LDj3BQdTbqmUlBQZQD09PZkYRWdS4mBBkMLuRPuI0Cu3RfBZxU/FGuTxeDo6OnL/BQkmKWxILFg/jfHx8QELVGCu4XfoBY/HYxAIGqw50keRC+K6oFo1aB+RFlaNQKVKEbz5ZWyiSw18XTAyMgIvMjKZzD7HC0jj4VwgjycytPbrn9owxtYGHzXVCQe4LvB4PF1dXUAWg8EwMjLSFHEDzI423DPa4KOmuuUA1wW0FjAYDEQjNEXfgLGjDfeMNvioqQ45wHVBR0cHmT8DbwSDM5o1RV+fdkg6i0UuLjK3JzcVP1LZe0bGL5mf+FiqpfJ4vJSUFNXKglLK+ghKgSkYdXBVKIvPJ36qCnDYIgNcF2QYlPmJpUODMSkpKUZGRqr1RRWqwewNHA6HxWLp6ekhp1ETNKVsPSEI0tXV1e8Nurq6cqe+CUITzAa+uYSdmSc+3aOsjz4+Pvr6+j69YfLkyWqqEkE38bsNfipBCCLZBrguEKFA43nA3LuPj4+FhYWyfVG1ynA4HPSdyWKxdHR0lBoZKftOkb6+/uTJk/X19Y2MjJARmWqVJ1gKnIXH+Djo6ekRLA7DsFI+yowuhUKhnp6eUpQSrxjIid9t8FOVxeozP60LfVKkegYGg0GNLjAYDB0dHaSiFJyh1OfKDlIZTV1gxwVMJpO8ASBQPXTl9fX1lVIWdFmlrvG7DX6qUkA4mWldwCFH3SRqmhCGYaFQiL5DWCwWBEGk/rlRrwsyw/iUlBSsUqjbYKjyEATJaDrYR4/KQtYlfrfBT9VUnWhd0BSTcuxQ04RYYPBWCDZegzHgeGuwJQQtSRqEwDeFfm7Cz6laqlxdoGY9C7/b4Keq5iy2FK0LWE40FkNNEyLVBbubwXM4EknShZ6eHvjwCXjwpmaAjfhC3qH7CASYVUV+wjAMjvxHx5B0jd9t8FM1VSVaFzTFpBw71DQhAgx0gcViUTB5jl7v4PF4EARRNmoQCoUU7E/D7nbR09PDeQEEaQX1L/C7DX6q+ujAAq0LmmJSjh1qmhALnJKSoqOjQ9mNCsOwnp4e2QN7xE0mk0nB8ERmHMRisSwsLGhdQFqBvlCdgU+lC+BGJe9PlcfjyUxqgo0MqjOlTEnwipcyJVTMC17AtbCwAAsflLUmPhB+qoquYorR4wUMJZqLoKYJhUKhrq6uzOQ8qTcq+CIGmidS4dBA4JkFHUPZtb6+PjVjIvxug5+qKTZoXdAUk3LsUNOE4FaR0QU9PT3yxgv6+voyq4ZYYZJDhyaifHx8qBnMy3w5VigUUjaHgt9t8FM1wfH/26B1QVNMyrFDTRPCMDx58mT0wJ7siUCZT7BzOBxlt1fKIYtYFNgNTSyvWrlktooxeoNaFgkXxu82+KmEQfrISOtCHwSplszoDbq6uuDYHLLX1cAUPYvFAq9Okb0zTygUWlhYgCUJHx8fPT09meGDaqQRKUWZLqSkpDAYDLBhDLQmkeqpmQcAKeo2+KlqQssUp3VBhpB+/BNsAQTqQIEb4M5BL1hSACoUCilD5PF4rN5A5coOBRwSgaB1gQhLdB6aAe1igNYF7Wpv2luaASIM0LpAhCU6D82AdjFA64J2tTftLc0AEQZoXSDCEp2HZkC7GKB1Qbvam/aWZoAIA7QuEGGJzkMzoF0M0LqgXe1Ne0szQIQBWheIsETnoRnQLgZoXdCu9qa9pRkgwgCtC0RYovPQDGgXA7QuaFd7097SDBBhgNYFIizReWgGtIsBWhe0q71pb2kGiDBA6wIRlug8NAPaxQCtC9rV3rS3NANEGKB1gQhLdB6aAe1igNYF7Wpv2luaASIMKNSF5ubmyspKgUDQ3t6OGKrvDQ0NDRKJBIlU6oLH47m6ur5+/VqpUjiZu7q6/P39c3NzcfLQSTQDNANKMSBfFyoqKmxtbY2MjAwMDFavXl1UVCSRSJKSkrZt22Zvb3/48GHVzvkUCAT79++/fv26VCpVqpZI5rq6Oi6XW1FRgcTAMNzQ0GBjY/Ps2TN0ZFdXV3l5eX19fUNDQ0VFRXV1tVgsRmcg9bqrq+v169fp6end3d2kAsEw3NbWVlBQ8OTJE7KBYBhuamp69uwZNSr87t27R48evXr1imy/amtr09PTKysryQbqR/bl6IJYLI6Jibl8+bJYLC4qKjI3N1+8eLGXlxeLxRIIBN3d3XV1dWFhYa2trUr5KRaLAwICbG1tlSoFMkskEoFAkJWVZW9vP2zYsLi4OBkjN27csLS0fP/+PYhvbGzkcrk7duxYuXJlcHCwp6fn6tWrHz9+LFOKjJ/t7e0lJSVxcXHGxsb//Oc/Ozo6yEABNpubmwsLC0NCQgwMDFatWkUeEAzDIpHo5cuX586d++abbxwdHcnDkkqlNTU1z58/P3To0LBhwy5evEgSlkQiqayszMzMtLOzGzZsWEJCAklA/dGsHF149erVgwcPkA4tEol++uknCILy8vIQD4VC4f3795GfRC6eP3++YMGC/Px8Ipll8ojF4oSEBB8fn6NHj/7tb3+LiYmRySASiZYsWeLv7w/iX7x4kZ6eHhgYOH78+KdPn0okEmNj4/DwcJlSZPysrq728vIKCQlZvnw52bpQUlLi4eERFBQ0e/bslStXkuEOsCmVSrOysjw8PM6fPz9+/Hh7e3vysHp6eu7cuePp6Xnq1KnRo0f7+fmRhCUWi+Pj4z98qMbFxWXkyJHYPxuScPuFWTm6UF5e/uDBA5FIBBwQiUSbN2/+85//vG3bNiQyNzf3+fPnxD3s7Ow8duzYihUriBeRmzMhIWH06NFYXejp6WGz2SYmJqBUd3e3VCq1t7e3sbGBYbigoGDGjBnJyclybZIUuWnTJkNDQ/TsDElAjY2NixYtIlUXkJp/GApNmTKFVF1AsNLS0saMGUOeLiBA8fHxo0aNio2NRWLoCzm6AMNwZmamr6/vnTt3bty4sX//fjc3N29v7wkTJlhbW4eFhQUFBZ0/f14p7vh8/owZM9zc3JQqhc0cGxsrVxdgGH716tWECRNycnJAqVevXpmZmXl7e8Mw7ObmZmVldf/+/Xfv3mFtkhHT3d3966+/UqML9fX1CxcupEYXCgoKKNOFe/fuUaMLMTExWqgLeXl56enpDx8+5HK5Dx8+zMjIePDgAZfLBdNw8nWhra3t+vXr7u7uJ0+e9Pf3B1MJaWlpTCbT1tbWzc2toKBAqdvp1atX33333e3bt5Uqhc2MowtlZWWTJk06c+YMKBURETFr1iwwG2dpablp06bQ0NDCwkKsTTJiaF1Qn1VaF9TnUK6F5uZmPz+/BQsWzJkzx9DQ0MTExMjIaO7cucbGxsuWLWtubu7j+5SamkuXSqWxsbHjx4+vrq6WW1HikTi6UF1dPWfOnG3btgFrDx8+DAoK6urqgmE4KSnpypUrPB6PglE9QKd1gXibKspJ64IiZtSJ7+npSUpK2rRpk5+f3+7dux0cHKKjo62trd3c3GJiYm7duoU3XlAHGFtWIpG4uLhMmzZNJqmnp6e8vJzH4+UrCDwe7+3bt+hSOLogEonMzMyWLl2Kzv+prmldUJ95WhfU5xBroamp6e7du2VlZTAMBwUF3bx5E4bho0ePygyl5T9HYM2pEyORSE6ePDl16lQZIy0tLb6+vuvWrdumIKxbt+7s2bPoUji68GG5e9GiRepPbaLhVL6mdUFl6pCCtC4gVGjwoqOjAwyiKysrjxw5kpaWVlNTY2tr+/LlSzTKf3ThzZs3lpaWVlZWDAZj69atGxSE9evXW1pampmZWVhYLFu2bOXKlba2tn3uPJFIJMeOHcOOF8RicUFBQVpaWoaCkJaWJlNdHF0QiUSLFy9etmwZ2r1PdU3rgvrM07qgPoc4Fq5cueLk5NTS0pKQkGBtbS1/vPD27duxY8dCEPTFF18cOXLk5s2b1xWE2NjY8PBwBweHWbNmQb3B1dUVBx6GYalUmpqaOm7cuNLSUvycfabGxcWNHj1a7pJSZWXlzJkz7ezs+jRCQQaJRALWKTs7O8mGE4lEixYtIntfE/CiqKhoypQpDg4OZDsFw3BqauqYMWOUXflSoWKxsbGjRo3Stv0L27dvP3ToEAzDvr6+s2fPlvkD/s94oaen5/bt20OGDPniiy+QqTsciru7u6uqqrhc7uLFixctWtTnfN6rV6/Gjh2rzpYyaW+Ijo4eMWJEVFQU+ImuYVlZmYGBAQXdCA0q91oqlYrF4vXr18+YMaO1tVXlTd9yjctESqXS2traefPmLV++HMuJTGY1f0ql0ry8vIkTJ+7evZsCrLt3744aNcrb25s8LGA5Kipq+PDh0dHR5AGpybzGiz958mT69OmXLl0CujBkyBAul4tG+d/8glQq9fT0BEOGkydPojPhXJeVlTk6OoaEhODkgWFYIBAYGxsfOHAAPxtO6pMnT5ycnCwsLAYNGmRubr5379709HT061t5eXkGBgZ8Ph/HCDVJfn5+9vb2Y8eOHT58+Pbt28+cOVNVVUUGdHt7+8mTJ3fu3Dl8+PDvv/+eyWT6+/s3NjaSgSUUCg8fPvzrr79+9dVX06dPt7W1jYyM7PP/QLWa5Ofn79u3z8rKatCgQSYmJo6OjsnJyZpaHUNX6fHjx05OTkuWLBk0aNCSJUv27t3L5XLRnQqdeSBde3h4GBoaghmAR48effvttzJ7Bf+nCzAMNzY2bty4EYKgoUOHyh2ry6UmOzv72rVrcpOQSIlE4u/vb25ujsQoe9HS0lJRUcHn88vKyvh8fkVFBVhoBXa6u7tPnjy5fPlyZc2Skb+2tra8vLysrOzt27d8Pr+mpoakV7YkEkl1dXV5efmbN28AVm1tbU9PDxGnpFIpwZzAmlgsFggEiF/l5eUikYikW6i9vV2mrZuamggOuyS9gQgDMAzjdyqCRvpjttLSUh6PB2re3d2dlZVVU1ODduQjXYBhOCcnZ9q0aRAEzZs3j+B0gFQqJaLlxcXFy5Ytu3fvHhpeU9fV1dXm5uaJiYmaMjjg7bx+/TowMHDguXnjxo3U1NSB5xfFHsnqAgzDcXFxgwYNgiDIxsYGLGloqk5hYWFbtmxR9kVMIuhsNnv9+vWarS0R3P6bJyMjw8rKqv/WX1HNDx065OHhoSiVjifIgBxd+LAL0sXFRUdHB4KgCxcuKDXaxEd99+7d6dOn2Wy2Bp9LpVJpcXGxnZ0d/f48PvkyqVwul5pXKmRwyf558OBBZC882VgD2L58XaiqqrK0tIQgSF9f/8GDBxr0v7y8PDQ0tLy8XFM2xWJxdHS0+jusNVWf/mKHHi/0l5b6JPWUrwswDIO3XCEIMjc3l5mT+CQVpQa0srLy/v37GYpDWloaNacVke1vZmamtbU12SjU22exWF5eXtTjUobY2dn56NEjLpeboSBwudz09PSWlhZ1qqRQF8D26SFDhkAQZGdn19DQoA5MfymbmZnp4uJyWnE4ceLElStXNOVOT09PXV1dVVVVtYIgEAiQQ6jUBBWJRHw+HyxbVFZWxsTEmJubg2l/fm948+YNeolHHbiOjg4FDv0nuqqqSiOTQd3d3dXV1cApPp8vEAiYTOahQ4cEAgFwCiQRmRfv01+pVPr+/XuBQKDItaqqqtraWuy6iUQiefz4cUxMTF1dHRrl3bt3sbGxjx49QkeCfYCZmZnR0dG1tbUySTAMNzc3nzt3zt3dXXEnPe3m5qbmfzmeLnR1de3fvx+CIENDQxWe3i9dunT09xpOnz5Nxk5EDoejyGMOh4Nt4/r6eg8PDyaTuUdBsLGxiY+PxxaEYdjPz08R1t27d7FFbt26deHCBf/eEBYWtnfv3unTp4eEhAQEBIBILy8vuadptbS0uLm5KcJCDrxAI+bm5jo5OTk4OMh1y9HRkclkyt0+X1lZqQjo6NGj2M0pjY2NoaGhiF8cDsfc3NzKyorD4QCnLl68GBAQgNW7oqIiHCC553SA85127dol16k9e/bY2toeP34cOx/X1dVlamoKQZDMqagPHjyAIGj+/PkyUtLT02NhYQFBEHipCU2s+teFhYU4joOkPt6zhmHYw8Nj6tSpMv4QrNzx48e3/l6Dvb293LnP/Pz8wMDAcMUhNDQUZ8LF29tbkcfghBgZ6t6/f3/t2rWgoKAwBYHNZmdlZcmUAj8PHz6sCCs6OhpbpKioKCcnJ7c35Ofnh4SELFiwIC8vD8Tk5uY+e/asvr4eW7CpqWnXrl2KsDIyMrBFPmyrDw8PDw0NletWaGhoUFCQ3D+0169fKwLaunVrSUmJDFZ7e3tOTs6LFy+AF4WFhVu3bnV0dCwsLAQxIAk7NsnJycEBklu3np6erKwsnMYKDg6Oi4vD7uno6emJjIx0cXGR0bWKioqjR49GRkbK6IJEIvmwe8jZ2fnNmzcy/oJjfjkcTlhYWLiCEBYWFhkZqWiA//z5cxzHQVIfupCWlvavf/0rIiICW7mBGqOmLvQjWrKysgbk/IKzs/PAnl9oa2tTRxcIdlGFzxHZ2dkzZ848ceKERp7NCNaGzkYZA/R6BGVU90cg+bpQVla2dOlSJpOJfTDrj07SdcYyQOsClhM6BmFAji5UV1dbWVmtWbNG0SMKUpjghUgkSk9PJ7irmqBNFbI1NDQgh9+rUFyFInV1ddinTRXs4Bd59+5dSkqKsqunXC7X0tIS3zI6tbOzE90fWltbkcPB0dnUv+7s7CwpKZH7hE/E+P79+0+dOkUkJ5KHz+ffvHmTJHcQlN/zRUVFRWlpKfotHlld6OrqYrFYVlZWxBcgcnJyFE2cSiQST09Pb2/vgICA9b1B2QNjNcJmVVWVq6vr/PnzkXdFNGIWx8iLFy9sbGzWrl1LxqoHgisWiy9cuODu7h4YGMhkMtetW/fixQskFf+isLDQ3d0dPw86tbi4eNq0aQsXLly9erWZmZmpqemNGzfQGTR1/fbt25UrV06aNGn2f4NRb7Czs5O7bieDe/XqVeKvyVRXV+/Zs2fXrl0XL17cvn17eHg4djVBxv7A+ymVSjdt2nT06FH0v6asLnh7e8+fP1/m8BYcLsrLyzdv3ix3sl0ikXh4eLDZbD6fLxKJnj17tnTpUgsLC/TfDo5l/KTExEQiH7lsbW0NDg4+ffr0hg0bhg4dSsEnpwQCwZkzZzw8PObOnTt16lQ01/geqZCakJCwZs2aoqKixsbG7OxsQ0PDn3/+WWZyW5FZsVis1M6I/Pz8IUOG/PWvfx0+fPiCBQs4HI7cxTxFcMTjs7Kyfvzxx3nz5v3UG+bOnWtiYjJo0KALFy4QEdnW1ta2tjYicI2NjRs2bFi1alVJSUljY+PLly+XLl16/fp1ImUHUp7IyMgvv/zSwcEBTe9HusDhcBYuXPj06VN8tyUSiVgs7ujoePLkyU8//WRiYiJ3GzL4ytOxY8cQa7dv3/78889Pnz6NxKh8sXHjxjt37vRZXCKRCIXCmpqas2fP/v3vf6fgI45dXV0CgaCmpmbDhg2kfj9CIpHs3LlzypQpYPjX3d29ZcuWH374gYhc9skbNkNJScmePXvAp4xJOuIBgD579uzUqVPv/htEIpG/v7+npyfBux1bc0Uxd+7c+dOf/oQ+bWzt2rW//PKLVj1Q5OTk+Pn5jRkzxsnJSY4u9PT0pKSkjBgx4t///vfVq1cDAwPZ8kJgYGBAQMDBgwfXrFkzbdo0XV1dCIJ27typiPqJEyeOGDECGSDk5ub+4Q9/2Lp1K8jf0tKCtEFjY2N9fT3xf7A1a9bcunVLES42/vz589988w0FuoBAU/C9qdLS0kePHoEBwodJnPnz55uammLX6pEqqXNRWloKbqHW1lZSl6hqamrQT0OVlZXHjh2T+SixOo4gZYODgyEI8vT0RGLc3d0nTJggd3MXkmcgXXR2dh4/fjwjI2Pp0qW7d++Wowt8Pt/IyOirr74aMWLEyJEjR+CGv/zlL19//bWuru6XX345adIkubvrAH1Xrlw5f/48MpZOT0+HIOjgwYMwDFdUVLi6uq5YseL69es8Hu/EiRMODg7btm3Lzs4mMlfHYDCU+kqNr68vlbpA5bmvnZ2dTU1NN2/enDJlSp8HZ6ncrUtKSmxsbK5fv75v3z5XV9f8/HwizaQaHPIo1N7e7u3tnZCQQAZWUFCQjC6cPXt28ODB2dnZqlW7f5WSSqWRvUEikZiZmTGZTDm60NTUFBcXl5iYmJCQEN9XSEhISExMTEpKio+P53K5yG2Pz4tUKrW1tZ04cWJeXl5HRwebzb5x48a+ffuGDRv24YAwPp/f0dGxY8eOFStWEBmmrlu3TqldmANVF8RicWpqqqenp6GhoTrH5OG3HQzDeXl5M2bMCA0N7ezsDAkJoeZ7n+Hh4W5ubuj+2mc9iWeIiIiAIOjcuXNIEQcHBwiCtEQXioqKfH19wRbSBQsWyNcFhBryLhITE/X19dlsNgzDL1++DAsLa29v37Jli4GBAbK/defOnTNmzJB5vQSGYbFY3NDQUP/fIBKJrKysoqKiRCLRf+PqkacVuS4MYF14+vTpzZs3XVxcVq1apZRWyiVKUWRDQwP6C+Y2NjampqbIY6CiUurEt7a2HjhwgLwRUEFBwYQJEzZt2gTWIECngiCoz/k1dZz6nZRtamoKDAxERvqfTBcePnw4c+ZMZNlC2BtKS0snTJiAPl1n7ty5GzduxM4wVVRUXL58mc1mB/WGq1evzpo1y97ePiIiAsQEBASA83wV8T5QdQHtr7u7+/jx44mvJaHLKnvt7+//xz/+MSoqStmCxPNfu3Zt1apVSn02nbhxkDMyMtLU1NTf3//Ro0fR0dGbN28eMmTIgB8vdHV1xcfHo8/FNzMzkzn7/6P1CGVpJZg/Nzd327ZtQBTAWgYoGBYWNmrUKGS1uaio6Ntvv5V7hGxtbS36WITMzMyFCxd6eHhkZWVl9Ib09PSnT58iz6XYig08Xejo6EhOTn7x4gXiNXg/78iRI1j31YxpaGhwd3dHr+GFhISA47zUtIxTnMViLVu2jNQhCQzDT58+PXDggKur64fJTmdn52+//VbmSwo4NeynSZWVlSdPnvTz80vtDXfu3Jk2bZqlpeXt27eR7WRq6cL79++5XG5mZqbcd2YBa3V1dba2tsiaYl1dHfI+4vHjx8eNG4ds1HNycvrhhx/4fH5+fj5665Vc9un5hcLCwsGDBzMYDGQrDpfLhSDIyclJLmPqRBYXF3/++ef79+9HjAQGBuro6Mh9eRzJo87Fhxclly9fbm9vr44R/LJgRRk9OF3WG0jal4FfGSpTRSJRfHy8Z2/w8vKys7MbOnSoiYnJmTNnkMGm6rpQW1t76tSp6OjoW7duubq6yl0CbGhocHBwWL9+fXp6empq6r1793x9fcE21Y6OjrVr11paWiJrk4aGhrt3725vb9+zZ0+fU4/KrkcEBgaOGTMmLy+PsgbYsWOHkZEReXBv3rwZN24c+m3XqKiooUOHIhKsQeg3b96sXbsWPYPz22+/zZw5s6KiQoMoaFMFBQXff//9nj170JGavS4sLFy+fHlAQAAwm5+f/+OPPyYlJWkW5fdvTSAQjB8/3tnZGV1V1XUhKirKzMwM2HJzc1u7di326CjwNYqvv/568ODBg3qDvr4++IJFVlbW0KFD0bUxNDR0dna+evVqREREn1PQxHUhKysrICBgyZIlEATt3r07ODgYZ3SDpkbl66SkpPPnz48bN05XV9fDwyM6OpqMvyCJRBIQEODu7p6Wltbd3Z2amrpgwQJHR0eVq41TsKWlJSIiwtfXF3wHGSx/KDowBscO8aSMjIzPPvuM1K8KFhcXz54928XFBZxaaG1tferUKeRfinhV+3XOx48f7969+7PPPps5c+bFixeR9yShzs7OxMTECxcuZGVlRUVFsdlsIvMuLS0tv/zyy5pmESg+AAACkklEQVQ1awAply5dMjAwwO4yZrPZXl5eHh4eZ/4bQkNDwViguLjYzc0NvV8lOTnZy8srJiaGyMKntbW1opcyZNqJx+NFREQEBAR4eXkFBwfHxMTIHI8hk1/9n/fu3eNwOL6+vj4+PpcvX75161afwx/VQHt6esLDw729vb28vA4ePHj+/Hm5G09VMy5TSiQSfZgPunTpkoeHx5EjR0h6OQIBrampYTKZYPUKidTsRXd3d3Z2dmBvOHv27JUrV9DPFJrF+t1ay8nJuXTpkq+v78WLF6OiopBvOEBBQUFxcXHffffd4cOHMzIynJycwH7Etra2+Ph4Nze3sx+HM2fOgEOEjIyMfv75Z+Awm80eOXIkel5KNSKwK5SK7Dg7O8t9clGUfwDHV1dXp6amImu9pHpaVFSUnJzc1NREKgow3tzcjH5yIQmxrKzswYMHxN8SJKkavzezUGZmZmlp6T/+8Q/w13348GHwuRGxWJyfn5+G+Qh9enp6dnZ2UVGRsbExWhdGjx6t1MZkNYmorq5GtE1NU3RxmgGaARkG/n9+ITAwcN68eWBvsqWl5fHjx2EY7u7uLi4ufvjw4ZOPw+PHj3Nzc9++fbtq1Sr0c8TEiROxJ9vKgNE/aQZoBvoFA1BbWxuDwbC1tYVh+Nq1a3PmzImOjn748GFbW1taWhqbzQ79OAQHB8fHx3d0dAQFBS1evBgsnru7uy9duhSZtOgXntOVpBmgGVDEAFRXV2dqago+J5uUlGRsbBwXF5eVlSWRSNrb29/LC2Ddoby8/LfffktKSvrw3QFHR0dke5IiJDqeZoBmoL8wAInF4rKyMvC+WldXV01NDfHTx0QiUXJycmJiIli+6i8+0/WkGaAZwGfg/wDqqbVwASsLsQAAAABJRU5ErkJggg==;sketch=1;curveFitting=1;jiggle=2;" vertex="1" parent="2">
                    <mxGeometry x="415" y="120" width="349" height="106" as="geometry"/>
                </mxCell>
            </root>
        </mxGraphModel>
    </diagram>
</mxfile>